<?xml version="1.0" encoding="UTF-8" standalone="no"?>
<svg
   xmlns:dc="http://purl.org/dc/elements/1.1/"
   xmlns:cc="http://creativecommons.org/ns#"
   xmlns:rdf="http://www.w3.org/1999/02/22-rdf-syntax-ns#"
   xmlns:svg="http://www.w3.org/2000/svg"
   xmlns="http://www.w3.org/2000/svg"
   xmlns:sodipodi="http://sodipodi.sourceforge.net/DTD/sodipodi-0.dtd"
   xmlns:inkscape="http://www.inkscape.org/namespaces/inkscape"
   height="16"
   width="16"
   version="1.1"
   id="svg4"
   sodipodi:docname="gwe-symbolic.svg"
   inkscape:version="0.92.3 (2405546, 2018-03-11)">
  <metadata
     id="metadata10">
    <rdf:RDF>
      <cc:Work
         rdf:about="">
        <dc:format>image/svg+xml</dc:format>
        <dc:type
           rdf:resource="http://purl.org/dc/dcmitype/StillImage" />
        <dc:title />
      </cc:Work>
    </rdf:RDF>
  </metadata>
  <defs
     id="defs8" />
  <sodipodi:namedview
     pagecolor="#ffffff"
     bordercolor="#666666"
     borderopacity="1"
     objecttolerance="10"
     gridtolerance="10"
     guidetolerance="10"
     inkscape:pageopacity="0"
     inkscape:pageshadow="2"
     inkscape:window-width="1721"
     inkscape:window-height="1376"
     id="namedview6"
     showgrid="false"
     inkscape:zoom="11.313708"
     inkscape:cx="8.5421675"
     inkscape:cy="-10.600116"
     inkscape:window-x="1719"
     inkscape:window-y="27"
     inkscape:window-maximized="0"
     inkscape:current-layer="svg4" />
  <path
     style="opacity:1;fill:#808080;fill-opacity:1;stroke:none;stroke-width:1.72497523;stroke-miterlimit:4;stroke-dasharray:none;stroke-opacity:0.94117647"
     d="M 1.9003907,1.5 C 1.6787906,1.5 1.5,1.6787906 1.5,1.9003906 v 2.7988282 6.6015622 2.798828 C 1.5,14.321209 1.6787906,14.5 1.9003907,14.5 h 0.4003906 c 0.2216,0 0.4003906,-0.178791 0.4003906,-0.400391 V 12.5 h 1.5195312 v 0.712891 c 0,0.184013 0.1480182,0.332031 0.3320313,0.332031 h 6.8945316 c 0.184013,0 0.333984,-0.148018 0.333984,-0.332031 V 12.5 h 1.519531 C 13.965581,12.5 14.5,11.965581 14.5,11.300781 V 4.6992188 C 14.5,4.0344187 13.965581,3.5 13.300781,3.5 H 2.7011719 V 1.9003906 C 2.7011719,1.6787906 2.5223813,1.5 2.3007813,1.5 Z M 10.28125,5.25 a 2.75,2.75 0 0 1 2.75,2.75 2.75,2.75 0 0 1 -2.75,2.75 2.75,2.75 0 0 1 -2.75,-2.75 2.75,2.75 0 0 1 2.75,-2.75 z M 3.3964844,6.5 h 3 v 0.8007812 h -3 z m 6.8847656,0 a 1.5,1.5 0 0 0 -1.5,1.5 1.5,1.5 0 0 0 1.5,1.5 1.5,1.5 0 0 0 1.5,-1.5 1.5,1.5 0 0 0 -1.5,-1.5 z M 3.3964844,8.6992188 h 3 V 9.5 h -3 z M 4.8105469,12.5 h 0.5527344 c 0.013296,0 0.023437,0.01014 0.023437,0.02344 v 0.552734 c 0,0.0133 -0.010141,0.02344 -0.023437,0.02344 H 4.8105469 c -0.013296,0 -0.023437,-0.01014 -0.023437,-0.02344 V 12.52344 c 0,-0.0133 0.010141,-0.02344 0.023437,-0.02344 z m 1.1660156,0 h 0.5527344 c 0.013296,0 0.023437,0.01014 0.023437,0.02344 v 0.552734 c 0,0.0133 -0.010142,0.02344 -0.023437,0.02344 H 5.9765625 c -0.013296,0 -0.023437,-0.01014 -0.023437,-0.02344 V 12.523438 C 5.953125,12.510141 5.9632665,12.5 5.9765625,12.5 Z m 1.1660156,0 h 0.5507813 c 0.013296,0 0.025391,0.01014 0.025391,0.02344 v 0.552734 c 0,0.0133 -0.012095,0.02344 -0.025391,0.02344 H 7.1425781 c -0.013296,0 -0.025391,-0.01014 -0.025391,-0.02344 V 12.52344 c 0,-0.0133 0.012095,-0.02344 0.025391,-0.02344 z m 1.1640627,0 H 8.859375 c 0.013296,0 0.023437,0.01014 0.023437,0.02344 v 0.552734 c 0,0.0133 -0.010141,0.02344 -0.023437,0.02344 H 8.3066408 c -0.013296,0 -0.023438,-0.01014 -0.023438,-0.02344 V 12.52344 c 0,-0.0133 0.010141,-0.02344 0.023438,-0.02344 z m 1.1660155,0 h 0.5527347 c 0.0133,0 0.02344,0.01014 0.02344,0.02344 v 0.552734 c 0,0.0133 -0.01014,0.02344 -0.02344,0.02344 H 9.4726563 c -0.013296,0 -0.023437,-0.01014 -0.023437,-0.02344 V 12.52344 c 0,-0.0133 0.010141,-0.02344 0.023437,-0.02344 z m 1.1660157,0 h 0.552734 c 0.0133,0 0.02344,0.01014 0.02344,0.02344 v 0.552734 c 0,0.0133 -0.01014,0.02344 -0.02344,0.02344 h -0.552734 c -0.0133,0 -0.02344,-0.01014 -0.02344,-0.02344 V 12.52344 c 0,-0.0133 0.01014,-0.02344 0.02344,-0.02344 z"
     id="rect1054"
     inkscape:connector-curvature="0" />
</svg>
