<?xml version="1.0" encoding="UTF-8" standalone="no"?>
<svg
   xmlns:dc="http://purl.org/dc/elements/1.1/"
   xmlns:cc="http://creativecommons.org/ns#"
   xmlns:rdf="http://www.w3.org/1999/02/22-rdf-syntax-ns#"
   xmlns:svg="http://www.w3.org/2000/svg"
   xmlns="http://www.w3.org/2000/svg"
   xmlns:sodipodi="http://sodipodi.sourceforge.net/DTD/sodipodi-0.dtd"
   xmlns:inkscape="http://www.inkscape.org/namespaces/inkscape"
   height="16"
   width="16"
   version="1.1"
   id="svg4"
   sodipodi:docname="gwe-symbolic.svg"
   inkscape:version="0.92.3 (2405546, 2018-03-11)">
  <metadata
     id="metadata10">
    <rdf:RDF>
      <cc:Work
         rdf:about="">
        <dc:format>image/svg+xml</dc:format>
        <dc:type
           rdf:resource="http://purl.org/dc/dcmitype/StillImage" />
        <dc:title />
      </cc:Work>
    </rdf:RDF>
  </metadata>
  <defs
     id="defs8" />
  <sodipodi:namedview
     pagecolor="#ffffff"
     bordercolor="#666666"
     borderopacity="1"
     objecttolerance="10"
     gridtolerance="10"
     guidetolerance="10"
     inkscape:pageopacity="0"
     inkscape:pageshadow="2"
     inkscape:window-width="3373"
     inkscape:window-height="1376"
     id="namedview6"
     showgrid="false"
     inkscape:zoom="20.85965"
     inkscape:cx="-7.2642804"
     inkscape:cy="0.14501174"
     inkscape:window-x="67"
     inkscape:window-y="27"
     inkscape:window-maximized="1"
     inkscape:current-layer="svg4" />
  <path
     id="path2"
     style="clip-rule:evenodd;fill:#808080;fill-opacity:1;fill-rule:evenodd;stroke-width:0.04045436"
     d="m 6.6852132,6.1050305 c 1.4660256,0 2.3357134,1.14057 2.3357134,1.14057 L 7.8295457,8.2501235 C 7.2937277,7.3572545 7.1145958,6.9636345 6.2235885,6.8559845 v 2.537581 c 0.2020291,0.0678 0.4261867,0.108216 0.6765992,0.108216 1.7388093,0 3.3605843,-2.25254 3.3605843,-2.25254 0,0 -1.5015446,-2.038495 -3.7902905,-1.966567 -0.083619,0.0026 -0.1657011,0.007 -0.2469334,0.01274 v 0.836839 c 0.1497216,-0.01602 0.3021536,-0.02723 0.4616651,-0.02723 z m -4.2548277,1.251213 c 0,0 1.2657764,-1.867778 3.793203,-2.060826 v -0.67753 c -2.7993608,0.224644 -5.2235883,2.595512 -5.2235883,2.595512 0,0 1.3728996,3.9693825 5.2235883,4.3327835 v -0.72029 C 3.3979324,10.47038 2.4303855,7.3562435 2.4303855,7.3562435 Z m 3.793203,-3.988314 v 1.249958 c 0.082122,-0.0065 0.1643661,-0.01169 0.2469334,-0.01472 3.1827469,-0.107204 5.2563971,2.610237 5.2563971,2.610237 0,0 -2.3818312,2.8962495 -4.8630593,2.8962495 -0.2273535,0 -0.4402244,-0.02104 -0.6402712,-0.05643 v 0.772678 c 0.1710411,0.02172 0.3482312,0.03455 0.5331885,0.03455 2.3091349,0 3.979051,-1.1791235 5.596011,-2.5748395 0.267889,0.214691 1.365537,0.736876 1.591313,0.965767 -1.53767,1.2870155 -5.1205512,2.3243865 -7.1518051,2.3243865 -0.1957182,0 -0.3840332,-0.01181 -0.5687074,-0.02953 v 1.085835 H 15 V 3.3679415 Z m -1.5952772,4.215465 c 0,0 0.6983232,-0.835059 1.59196,-0.727733 0.00113,0 0.00198,3.64e-4 0.00336,3.64e-4 v -0.723769 c -1.7030881,0.184108 -2.7284039,1.320188 -2.7284039,1.320188 0,0 0.5927373,2.220054 2.7284039,2.6008105 V 9.3935655 c -1.2040859,-0.404543 -1.59532,-1.810171 -1.59532,-1.810171 z"
     inkscape:connector-curvature="0" />
</svg>
