<?xml version="1.0" encoding="UTF-8" standalone="no"?>
<svg
   xmlns:dc="http://purl.org/dc/elements/1.1/"
   xmlns:cc="http://creativecommons.org/ns#"
   xmlns:rdf="http://www.w3.org/1999/02/22-rdf-syntax-ns#"
   xmlns:svg="http://www.w3.org/2000/svg"
   xmlns="http://www.w3.org/2000/svg"
   xmlns:sodipodi="http://sodipodi.sourceforge.net/DTD/sodipodi-0.dtd"
   xmlns:inkscape="http://www.inkscape.org/namespaces/inkscape"
   height="16"
   width="16"
   version="1.1"
   id="svg4"
   sodipodi:docname="gwe-symbolic.svg"
   inkscape:version="0.92.3 (2405546, 2018-03-11)">
  <metadata
     id="metadata10">
    <rdf:RDF>
      <cc:Work
         rdf:about="">
        <dc:format>image/svg+xml</dc:format>
        <dc:type
           rdf:resource="http://purl.org/dc/dcmitype/StillImage" />
        <dc:title />
      </cc:Work>
    </rdf:RDF>
  </metadata>
  <defs
     id="defs8" />
  <sodipodi:namedview
     pagecolor="#ffffff"
     bordercolor="#666666"
     borderopacity="1"
     objecttolerance="10"
     gridtolerance="10"
     guidetolerance="10"
     inkscape:pageopacity="0"
     inkscape:pageshadow="2"
     inkscape:window-width="3373"
     inkscape:window-height="1376"
     id="namedview6"
     showgrid="false"
     inkscape:zoom="14.75"
     inkscape:cx="-29.21376"
     inkscape:cy="3.357314"
     inkscape:window-x="67"
     inkscape:window-y="27"
     inkscape:window-maximized="1"
     inkscape:current-layer="svg4" />
  <g
     id="g826">
    <path
       id="path836"
       d="M 8 1 A 6.9999995 6.999999 3.5083546e-15 0 0 4.0195312 2.2519531 L 3.2265625 1.4589844 C 2.7374145 0.9697119 1.9500643 0.96969078 1.4609375 1.4589844 C 0.97181068 1.9482779 0.97178954 2.7353369 1.4609375 3.2246094 L 2.2480469 4.0117188 A 6.9999995 6.999999 3.5083546e-15 0 0 1 8 A 6.9999995 6.999999 3.5083546e-15 0 0 2.2519531 11.980469 L 1.4589844 12.773438 C 0.9697119 13.262584 0.96969078 14.049937 1.4589844 14.539062 C 1.9482779 15.028189 2.7353369 15.028211 3.2246094 14.539062 L 4.0117188 13.751953 A 6.9999995 6.999999 3.5083546e-15 0 0 8 15 A 6.9999995 6.999999 3.5083546e-15 0 0 11.980469 13.748047 L 12.773438 14.541016 C 13.262584 15.030288 14.049937 15.030309 14.539062 14.541016 C 15.028189 14.051722 15.028211 13.264663 14.539062 12.775391 L 13.751953 11.988281 A 6.9999995 6.999999 3.5083546e-15 0 0 15 8 A 6.9999995 6.999999 3.5083546e-15 0 0 13.748047 4.0195312 L 14.541016 3.2265625 C 15.030288 2.7374145 15.030309 1.9500643 14.541016 1.4609375 C 14.051722 0.97181068 13.264663 0.97178954 12.775391 1.4609375 L 11.988281 2.2480469 A 6.9999995 6.999999 3.5083546e-15 0 0 8 1 z M 8 2.5 A 5.4999995 5.4999995 0 0 1 13.5 8 A 5.4999995 5.4999995 0 0 1 8 13.5 A 5.4999995 5.4999995 0 0 1 2.5 8 A 5.4999995 5.4999995 0 0 1 8 2.5 z "
       style="opacity:1;fill:#808080;fill-opacity:1;stroke:#1ad21a;stroke-width:0;stroke-miterlimit:4;stroke-dasharray:none;stroke-opacity:1" />
    <circle
       r="3.9999995"
       cy="8"
       cx="8"
       id="path822"
       style="opacity:1;fill:#808080;fill-opacity:1;stroke:#1ad21a;stroke-width:0;stroke-miterlimit:4;stroke-dasharray:none;stroke-opacity:1" />
  </g>
</svg>
