<?xml version="1.0" encoding="UTF-8" standalone="no"?>
<svg
   xmlns:dc="http://purl.org/dc/elements/1.1/"
   xmlns:cc="http://creativecommons.org/ns#"
   xmlns:rdf="http://www.w3.org/1999/02/22-rdf-syntax-ns#"
   xmlns:svg="http://www.w3.org/2000/svg"
   xmlns="http://www.w3.org/2000/svg"
   xmlns:sodipodi="http://sodipodi.sourceforge.net/DTD/sodipodi-0.dtd"
   xmlns:inkscape="http://www.inkscape.org/namespaces/inkscape"
   height="16"
   width="16"
   version="1.1"
   id="svg4"
   sodipodi:docname="com.leinardi.gwe-symbolic.svg"
   inkscape:version="0.92.3 (2405546, 2018-03-11)">
  <metadata
     id="metadata10">
    <rdf:RDF>
      <cc:Work
         rdf:about="">
        <dc:format>image/svg+xml</dc:format>
        <dc:type
           rdf:resource="http://purl.org/dc/dcmitype/StillImage" />
        <dc:title />
      </cc:Work>
    </rdf:RDF>
  </metadata>
  <defs
     id="defs8" />
  <sodipodi:namedview
     pagecolor="#ffffff"
     bordercolor="#666666"
     borderopacity="1"
     objecttolerance="10"
     gridtolerance="10"
     guidetolerance="10"
     inkscape:pageopacity="0"
     inkscape:pageshadow="2"
     inkscape:window-width="3373"
     inkscape:window-height="1376"
     id="namedview6"
     showgrid="false"
     inkscape:zoom="31.999999"
     inkscape:cx="20.225386"
     inkscape:cy="5.1288479"
     inkscape:window-x="67"
     inkscape:window-y="27"
     inkscape:window-maximized="1"
     inkscape:current-layer="svg4" />
  <path
     style="display:inline;fill:#808080;stroke-width:0.69440526;enable-background:new;fill-opacity:1"
     d="m 5.4228809,0.723634 c -4.71752904,0 -5.41406304,0.671217 -5.41406304,5.390625 V 9.88379 a 14.08302,14.026562 0 0 0 0.230469,3.064453 c 0.459235,1.975081 1.76025604,2.328125 5.18359404,2.328125 h 3.173828 c -2.048467,-0.86924 -3.628709,-2.016115 -5.503906,-3.824219 1.488169,-0.884332 2.166782,-0.672059 2.767578,-1.171874 0,0 2.284956,3.038265 6.2343751,4.949218 a 16.699232,16.632286 0 0 0 0.863281,-0.05078 4.4113805,4.3936957 0 0 0 1.224609,-0.279297 C 13.85898,14.73568 13.556348,14.597504 13.20999,14.401368 11.677618,13.488916 10.392039,12.687097 8.7041309,10.950196 c -2.155899,-2.382843 -2.75,-4.099609 -2.75,-4.099609 0,0 0.786992,-0.906286 1.986328,-1.691406 1.920189,-1.243009 4.0892201,-2.219023 6.9648441,-2.527344 0,0 0.307782,-0.02964 0.726562,-0.05469 C 15.065174,1.026809 13.714909,0.723632 10.598662,0.723632 Z M 15.92874,3.975587 c -4.028269,0.789895 -6.7617191,3.675781 -6.7617191,3.675781 0,0 1.5810731,4.011255 5.2109381,6.029297 0.142291,0.356638 0.30664,0.740234 0.30664,0.740234 0,0 0.07345,0.05811 0.16211,0.125 a 2.1848163,2.1760575 0 0 0 0.21875,-0.191406 2.7205833,2.7096767 0 0 0 0.695312,-1.386718 14.08302,14.026562 0 0 0 0.230469,-3.0625 V 6.944337 c -1.440031,0.865559 -2.269531,1.951172 -2.269531,1.951172 0,0 0.12689,1.441055 0.564453,3.349609 -1.806492,-1.659736 -2.498047,-3.777343 -2.498047,-3.777343 0,0 1.419872,-2.079637 4.19336,-3.253907 -0.01028,-0.383834 -0.04492,-0.726937 -0.04492,-1.039062 V 4.036134 a 6.2622121,6.2371075 0 0 0 -0.0078,-0.06055 z"
     id="path58"
     inkscape:connector-curvature="0" />
</svg>
